# xmcd
# 
# Track frame offsets:
#     150
#     18313
#     35743
#     75684
#     103586
#     123829
#     189945
#     218693
#     278624
# 
# Disc length: 4493
# 
# Revision: 0
# Processed by: cddbd v1.5.2PL0 Copyright (c) Steve Scherf et al.
# Submitted via: fre:ac v1.0.27
# 
DISCID=6d118b09
DTITLE=Eric Clapton - Transmission Impossible: Radio B'casts- cd 2 of 3
DYEAR=2018
DGENRE=Blues
TTITLE0=Hello Old Friend
TTITLE1=Sign Language
TTITLE2=Badge
TTITLE3=Knockin' On Heaven's Door
TTITLE4=One Night
TTITLE5=Tell The Truth
TTITLE6=Can't Find My Way Home
TTITLE7=Blues Power
TTITLE8=Layla
EXTD=
EXTT0=
EXTT1=
EXTT2=
EXTT3=
EXTT4=
EXTT5=
EXTT6=
EXTT7=
EXTT8=
PLAYORDER=
